<?xml version="1.0" encoding="UTF-8" standalone="no"?>
<!DOCTYPE svg PUBLIC "-//W3C//DTD SVG 1.1//EN"
 "http://www.w3.org/Graphics/SVG/1.1/DTD/svg11.dtd">
<!-- Generated by graphviz version 2.30.1 (20180420.1509)
 -->
<!-- Title: G Pages: 1 -->
<svg width="495pt" height="591pt"
 viewBox="0.00 0.00 495.00 591.00" xmlns="http://www.w3.org/2000/svg" xmlns:xlink="http://www.w3.org/1999/xlink">
<g id="graph0" class="graph" transform="scale(1 1) rotate(0) translate(4 587)">
<title>G</title>
<polygon fill="white" stroke="white" points="-4,5 -4,-587 492,-587 492,5 -4,5"/>
<g id="clust1" class="cluster"><title>cluster_01</title>
<polygon fill="none" stroke="black" points="106,-442 106,-575 224,-575 224,-442 106,-442"/>
<text text-anchor="middle" x="165" y="-559.8" font-family="Times,serif" font-size="14.00">Legend</text>
</g>
<!-- legend -->
<g id="node1" class="node"><title>legend</title>
<text text-anchor="start" x="122" y="-529.3" font-family="Times,serif" font-size="14.00" fill="red">at least one</text>
<text text-anchor="start" x="122" y="-515.3" font-family="Times,serif" font-size="14.00" fill="orange">at most one</text>
<text text-anchor="start" x="122" y="-501.3" font-family="Times,serif" font-size="14.00" fill="gold">coerce</text>
<text text-anchor="start" x="122" y="-487.3" font-family="Times,serif" font-size="14.00" fill="green">construct</text>
<text text-anchor="start" x="122" y="-473.3" font-family="Times,serif" font-size="14.00" fill="blue">get</text>
<text text-anchor="start" x="122" y="-459.3" font-family="Times,serif" font-size="14.00" fill="indigo">map</text>
</g>
<!-- constructor -->
<g id="node2" class="node"><title>constructor</title>
<path fill="none" stroke="black" d="M391,-211C391,-211 475,-211 475,-211 481,-211 487,-217 487,-223 487,-223 487,-241 487,-241 487,-247 481,-253 475,-253 475,-253 391,-253 391,-253 385,-253 379,-247 379,-241 379,-241 379,-223 379,-223 379,-217 385,-211 391,-211"/>
<text text-anchor="start" x="387.5" y="-238.8" font-family="Monospace" font-size="14.00">constructor</text>
<polyline fill="none" stroke="black" points="379,-230 487,-230 "/>
<text text-anchor="start" x="405" y="-219" font-family="Monospace" font-size="10.00">construct</text>
</g>
<!-- equality -->
<g id="node3" class="node"><title>equality</title>
<path fill="none" stroke="black" d="M246,-476C246,-476 306,-476 306,-476 312,-476 318,-482 318,-488 318,-488 318,-506 318,-506 318,-512 312,-518 306,-518 306,-518 246,-518 246,-518 240,-518 234,-512 234,-506 234,-506 234,-488 234,-488 234,-482 240,-476 246,-476"/>
<text text-anchor="start" x="242.5" y="-503.8" font-family="Monospace" font-size="14.00">equality</text>
<polyline fill="none" stroke="black" points="234,-495 318,-495 "/>
<text text-anchor="start" x="248" y="-484" font-family="Monospace" font-size="10.00">identical</text>
</g>
<!-- isomorphism -->
<g id="node4" class="node"><title>isomorphism</title>
<path fill="none" stroke="black" d="M234,-371C234,-371 318,-371 318,-371 324,-371 330,-377 330,-383 330,-383 330,-401 330,-401 330,-407 324,-413 318,-413 318,-413 234,-413 234,-413 228,-413 222,-407 222,-401 222,-401 222,-383 222,-383 222,-377 228,-371 234,-371"/>
<text text-anchor="start" x="230.5" y="-398.8" font-family="Monospace" font-size="14.00">isomorphism</text>
<polyline fill="none" stroke="black" points="222,-390 330,-390 "/>
<text text-anchor="start" x="257" y="-379" font-family="Monospace" font-size="10.00">invert</text>
</g>
<!-- equality&#45;&gt;isomorphism -->
<g id="edge1" class="edge"><title>equality&#45;&gt;isomorphism</title>
<path fill="none" stroke="gold" stroke-width="2" d="M276,-475.651C276,-457.593 276,-431.352 276,-413.307"/>
</g>
<!-- field -->
<g id="node5" class="node"><title>field</title>
<path fill="none" stroke="black" d="M207.5,-294C207.5,-294 242.5,-294 242.5,-294 248.5,-294 254.5,-300 254.5,-306 254.5,-306 254.5,-318 254.5,-318 254.5,-324 248.5,-330 242.5,-330 242.5,-330 207.5,-330 207.5,-330 201.5,-330 195.5,-324 195.5,-318 195.5,-318 195.5,-306 195.5,-306 195.5,-300 201.5,-294 207.5,-294"/>
<text text-anchor="start" x="204" y="-309.3" font-family="Monospace" font-size="14.00">field</text>
</g>
<!-- isomorphism&#45;&gt;field -->
<g id="edge7" class="edge"><title>isomorphism&#45;&gt;field</title>
<path fill="none" stroke="green" stroke-width="2" d="M262.866,-370.913C254.602,-358.274 244.052,-342.139 236.188,-330.111"/>
</g>
<!-- variant -->
<g id="node11" class="node"><title>variant</title>
<path fill="none" stroke="black" d="M293.5,-291C293.5,-291 344.5,-291 344.5,-291 350.5,-291 356.5,-297 356.5,-303 356.5,-303 356.5,-321 356.5,-321 356.5,-327 350.5,-333 344.5,-333 344.5,-333 293.5,-333 293.5,-333 287.5,-333 281.5,-327 281.5,-321 281.5,-321 281.5,-303 281.5,-303 281.5,-297 287.5,-291 293.5,-291"/>
<text text-anchor="start" x="290" y="-318.8" font-family="Monospace" font-size="14.00">variant</text>
<polyline fill="none" stroke="black" points="281.5,-310 356.5,-310 "/>
<text text-anchor="start" x="300" y="-299" font-family="Monospace" font-size="10.00">match_</text>
</g>
<!-- isomorphism&#45;&gt;variant -->
<g id="edge8" class="edge"><title>isomorphism&#45;&gt;variant</title>
<path fill="none" stroke="red" stroke-width="2" d="M287.074,-370.913C293.494,-359.267 301.55,-344.653 307.964,-333.019"/>
</g>
<!-- getter -->
<g id="node6" class="node"><title>getter</title>
<path fill="none" stroke="black" d="M101.5,-211C101.5,-211 144.5,-211 144.5,-211 150.5,-211 156.5,-217 156.5,-223 156.5,-223 156.5,-241 156.5,-241 156.5,-247 150.5,-253 144.5,-253 144.5,-253 101.5,-253 101.5,-253 95.5,-253 89.5,-247 89.5,-241 89.5,-241 89.5,-223 89.5,-223 89.5,-217 95.5,-211 101.5,-211"/>
<text text-anchor="start" x="98" y="-238.8" font-family="Monospace" font-size="14.00">getter</text>
<polyline fill="none" stroke="black" points="89.5,-230 156.5,-230 "/>
<text text-anchor="start" x="113" y="-219" font-family="Monospace" font-size="10.00">get</text>
</g>
<!-- field&#45;&gt;getter -->
<g id="edge2" class="edge"><title>field&#45;&gt;getter</title>
<path fill="none" stroke="indigo" stroke-width="2" d="M202.616,-293.883C186.899,-281.864 165.822,-265.746 149.303,-253.114"/>
</g>
<!-- nonempty -->
<g id="node7" class="node"><title>nonempty</title>
<path fill="none" stroke="black" d="M187,-214C187,-214 247,-214 247,-214 253,-214 259,-220 259,-226 259,-226 259,-238 259,-238 259,-244 253,-250 247,-250 247,-250 187,-250 187,-250 181,-250 175,-244 175,-238 175,-238 175,-226 175,-226 175,-220 181,-214 187,-214"/>
<text text-anchor="start" x="183.5" y="-229.3" font-family="Monospace" font-size="14.00">nonempty</text>
</g>
<!-- field&#45;&gt;nonempty -->
<g id="edge3" class="edge"><title>field&#45;&gt;nonempty</title>
<path fill="none" stroke="orange" stroke-width="2" d="M223.225,-293.689C221.899,-280.763 220.095,-263.177 218.77,-250.262"/>
</g>
<!-- optional -->
<g id="node8" class="node"><title>optional</title>
<path fill="none" stroke="black" d="M289,-214C289,-214 349,-214 349,-214 355,-214 361,-220 361,-226 361,-226 361,-238 361,-238 361,-244 355,-250 349,-250 349,-250 289,-250 289,-250 283,-250 277,-244 277,-238 277,-238 277,-226 277,-226 277,-220 283,-214 289,-214"/>
<text text-anchor="start" x="285.5" y="-229.3" font-family="Monospace" font-size="14.00">optional</text>
</g>
<!-- field&#45;&gt;optional -->
<g id="edge4" class="edge"><title>field&#45;&gt;optional</title>
<path fill="none" stroke="red" stroke-width="2" d="M245.862,-293.689C261.439,-280.763 282.633,-263.177 298.197,-250.262"/>
</g>
<!-- nonempty_getter -->
<g id="node9" class="node"><title>nonempty_getter</title>
<path fill="none" stroke="black" d="M11.5,-131C11.5,-131 128.5,-131 128.5,-131 134.5,-131 140.5,-137 140.5,-143 140.5,-143 140.5,-161 140.5,-161 140.5,-167 134.5,-173 128.5,-173 128.5,-173 11.5,-173 11.5,-173 5.5,-173 -0.5,-167 -0.5,-161 -0.5,-161 -0.5,-143 -0.5,-143 -0.5,-137 5.5,-131 11.5,-131"/>
<text text-anchor="start" x="8" y="-158.8" font-family="Monospace" font-size="14.00">nonempty_getter</text>
<polyline fill="none" stroke="black" points="-0.5,-150 140.5,-150 "/>
<text text-anchor="start" x="12" y="-139" font-family="Monospace" font-size="10.00">map_reduce_nonempty</text>
</g>
<!-- getter&#45;&gt;nonempty_getter -->
<g id="edge5" class="edge"><title>getter&#45;&gt;nonempty_getter</title>
<path fill="none" stroke="orange" stroke-width="2" d="M109.351,-210.913C101.438,-199.267 91.5078,-184.653 83.6026,-173.019"/>
</g>
<!-- optional_getter -->
<g id="node10" class="node"><title>optional_getter</title>
<path fill="none" stroke="black" d="M170.5,-131C170.5,-131 287.5,-131 287.5,-131 293.5,-131 299.5,-137 299.5,-143 299.5,-143 299.5,-161 299.5,-161 299.5,-167 293.5,-173 287.5,-173 287.5,-173 170.5,-173 170.5,-173 164.5,-173 158.5,-167 158.5,-161 158.5,-161 158.5,-143 158.5,-143 158.5,-137 164.5,-131 170.5,-131"/>
<text text-anchor="start" x="167" y="-158.8" font-family="Monospace" font-size="14.00">optional_getter</text>
<polyline fill="none" stroke="black" points="158.5,-150 299.5,-150 "/>
<text text-anchor="start" x="198" y="-139" font-family="Monospace" font-size="10.00">get_option</text>
</g>
<!-- getter&#45;&gt;optional_getter -->
<g id="edge6" class="edge"><title>getter&#45;&gt;optional_getter</title>
<path fill="none" stroke="red" stroke-width="2" d="M150.298,-210.913C166.124,-199.267 185.984,-184.653 201.795,-173.019"/>
</g>
<!-- many -->
<g id="node12" class="node"><title>many</title>
<path fill="none" stroke="black" d="M330,-131C330,-131 414,-131 414,-131 420,-131 426,-137 426,-143 426,-143 426,-161 426,-161 426,-167 420,-173 414,-173 414,-173 330,-173 330,-173 324,-173 318,-167 318,-161 318,-161 318,-143 318,-143 318,-137 324,-131 330,-131"/>
<text text-anchor="start" x="355" y="-158.8" font-family="Monospace" font-size="14.00">many</text>
<polyline fill="none" stroke="black" points="318,-150 426,-150 "/>
<text text-anchor="start" x="326" y="-139" font-family="Monospace" font-size="10.00">Applicative.map</text>
</g>
<!-- nonempty&#45;&gt;many -->
<g id="edge11" class="edge"><title>nonempty&#45;&gt;many</title>
<path fill="none" stroke="red" stroke-width="2" d="M251.015,-213.883C274.898,-201.864 306.927,-185.746 332.03,-173.114"/>
</g>
<!-- nonempty&#45;&gt;nonempty_getter -->
<g id="edge12" class="edge"><title>nonempty&#45;&gt;nonempty_getter</title>
<path fill="none" stroke="indigo" stroke-width="2" d="M184.74,-213.883C162.09,-201.864 131.715,-185.746 107.907,-173.114"/>
</g>
<!-- optional&#45;&gt;many -->
<g id="edge14" class="edge"><title>optional&#45;&gt;many</title>
<path fill="none" stroke="orange" stroke-width="2" d="M330.762,-213.689C338.935,-201.661 349.851,-185.597 358.399,-173.017"/>
</g>
<!-- optional&#45;&gt;optional_getter -->
<g id="edge15" class="edge"><title>optional&#45;&gt;optional_getter</title>
<path fill="none" stroke="indigo" stroke-width="2" d="M299.026,-213.689C285.147,-201.661 266.612,-185.597 252.097,-173.017"/>
</g>
<!-- many_getter -->
<g id="node13" class="node"><title>many_getter</title>
<path fill="none" stroke="black" d="M184,-1C184,-1 274,-1 274,-1 280,-1 286,-7 286,-13 286,-13 286,-81 286,-81 286,-87 280,-93 274,-93 274,-93 184,-93 184,-93 178,-93 172,-87 172,-81 172,-81 172,-13 172,-13 172,-7 178,-1 184,-1"/>
<text text-anchor="start" x="183.5" y="-78.8" font-family="Monospace" font-size="14.00">many_getter</text>
<polyline fill="none" stroke="black" points="172,-70 286,-70 "/>
<text text-anchor="start" x="180" y="-59" font-family="Monospace" font-size="10.00">fold</text>
<text text-anchor="start" x="180" y="-49" font-family="Monospace" font-size="10.00">iter</text>
<text text-anchor="start" x="180" y="-39" font-family="Monospace" font-size="10.00">to_list</text>
<text text-anchor="start" x="180" y="-29" font-family="Monospace" font-size="10.00">map_reduce</text>
<text text-anchor="start" x="180" y="-19" font-family="Monospace" font-size="10.00">Applicative.fold</text>
<text text-anchor="start" x="180" y="-9" font-family="Monospace" font-size="10.00">Applicative.iter</text>
</g>
<!-- nonempty_getter&#45;&gt;many_getter -->
<g id="edge13" class="edge"><title>nonempty_getter&#45;&gt;many_getter</title>
<path fill="none" stroke="red" stroke-width="2" d="M101.034,-130.896C121.188,-117.841 148.061,-100.432 171.977,-84.9393"/>
</g>
<!-- optional_getter&#45;&gt;many_getter -->
<g id="edge16" class="edge"><title>optional_getter&#45;&gt;many_getter</title>
<path fill="none" stroke="orange" stroke-width="2" d="M229,-130.651C229,-119.863 229,-106.155 229,-93.0181"/>
</g>
<!-- variant&#45;&gt;constructor -->
<g id="edge17" class="edge"><title>variant&#45;&gt;constructor</title>
<path fill="none" stroke="orange" stroke-width="2" d="M346.099,-287.612C363.12,-275.966 384.479,-261.352 401.483,-249.718"/>
<path fill="none" stroke="none" stroke-width="2" d="M347.228,-289.262C364.249,-277.617 385.609,-263.002 402.612,-251.368"/>
<path fill="none" stroke="blue" stroke-width="2" d="M348.358,-290.913C365.378,-279.267 386.738,-264.653 403.742,-253.019"/>
<path fill="none" stroke="none" stroke-width="2" d="M349.487,-292.564C366.508,-280.918 387.867,-266.304 404.871,-254.669"/>
<path fill="none" stroke="indigo" stroke-width="2" d="M350.617,-294.214C367.637,-282.569 388.997,-267.954 406,-256.32"/>
</g>
<!-- variant&#45;&gt;optional -->
<g id="edge18" class="edge"><title>variant&#45;&gt;optional</title>
<path fill="none" stroke="green" stroke-width="2" d="M319,-290.913C319,-278.274 319,-262.139 319,-250.111"/>
</g>
<!-- many&#45;&gt;many_getter -->
<g id="edge9" class="edge"><title>many&#45;&gt;many_getter</title>
<path fill="none" stroke="indigo" stroke-width="2" d="M344.089,-130.896C327.589,-119.011 306.081,-103.52 286.13,-89.1495"/>
</g>
<!-- mapper -->
<g id="node14" class="node"><title>mapper</title>
<path fill="none" stroke="black" d="M350.5,-21C350.5,-21 393.5,-21 393.5,-21 399.5,-21 405.5,-27 405.5,-33 405.5,-33 405.5,-61 405.5,-61 405.5,-67 399.5,-73 393.5,-73 393.5,-73 350.5,-73 350.5,-73 344.5,-73 338.5,-67 338.5,-61 338.5,-61 338.5,-33 338.5,-33 338.5,-27 344.5,-21 350.5,-21"/>
<text text-anchor="start" x="347" y="-58.8" font-family="Monospace" font-size="14.00">mapper</text>
<polyline fill="none" stroke="black" points="338.5,-50 405.5,-50 "/>
<text text-anchor="start" x="362" y="-39" font-family="Monospace" font-size="10.00">map</text>
<text text-anchor="start" x="362" y="-29" font-family="Monospace" font-size="10.00">set</text>
</g>
<!-- many&#45;&gt;mapper -->
<g id="edge10" class="edge"><title>many&#45;&gt;mapper</title>
<path fill="none" stroke="blue" stroke-width="2" d="M372,-130.651C372,-114.118 372,-90.7238 372,-73.0423"/>
</g>
</g>
</svg>
