<?xml version="1.0" encoding="UTF-8" standalone="no"?>
<!DOCTYPE svg PUBLIC "-//W3C//DTD SVG 1.1//EN"
 "http://www.w3.org/Graphics/SVG/1.1/DTD/svg11.dtd">
<!-- Generated by graphviz version 2.30.1 (20201013.1554)
 -->
<!-- Title: G Pages: 1 -->
<svg width="495pt" height="585pt"
 viewBox="0.00 0.00 495.00 585.00" xmlns="http://www.w3.org/2000/svg" xmlns:xlink="http://www.w3.org/1999/xlink">
<g id="graph0" class="graph" transform="scale(1 1) rotate(0) translate(4 581)">
<title>G</title>
<polygon fill="white" stroke="white" points="-4,5 -4,-581 492,-581 492,5 -4,5"/>
<g id="clust1" class="cluster"><title>cluster_01</title>
<polygon fill="none" stroke="black" points="106,-436 106,-569 224,-569 224,-436 106,-436"/>
<text text-anchor="middle" x="165" y="-553.8" font-family="Times,serif" font-size="14.00">Legend</text>
</g>
<!-- legend -->
<g id="node1" class="node"><title>legend</title>
<text text-anchor="start" x="122" y="-523.3" font-family="Times,serif" font-size="14.00" fill="red">at least one</text>
<text text-anchor="start" x="122" y="-509.3" font-family="Times,serif" font-size="14.00" fill="orange">at most one</text>
<text text-anchor="start" x="122" y="-495.3" font-family="Times,serif" font-size="14.00" fill="gold">coerce</text>
<text text-anchor="start" x="122" y="-481.3" font-family="Times,serif" font-size="14.00" fill="green">construct</text>
<text text-anchor="start" x="122" y="-467.3" font-family="Times,serif" font-size="14.00" fill="blue">get</text>
<text text-anchor="start" x="122" y="-453.3" font-family="Times,serif" font-size="14.00" fill="indigo">map</text>
</g>
<!-- constructor -->
<g id="node2" class="node"><title>constructor</title>
<path fill="none" stroke="black" d="M391,-211C391,-211 475,-211 475,-211 481,-211 487,-217 487,-223 487,-223 487,-241 487,-241 487,-247 481,-253 475,-253 475,-253 391,-253 391,-253 385,-253 379,-247 379,-241 379,-241 379,-223 379,-223 379,-217 385,-211 391,-211"/>
<text text-anchor="start" x="387.5" y="-238.8" font-family="Monospace" font-size="14.00">constructor</text>
<polyline fill="none" stroke="black" points="379,-230 487,-230 "/>
<text text-anchor="start" x="405" y="-219" font-family="Monospace" font-size="10.00">construct</text>
</g>
<!-- equality -->
<g id="node3" class="node"><title>equality</title>
<path fill="none" stroke="black" d="M246,-470C246,-470 306,-470 306,-470 312,-470 318,-476 318,-482 318,-482 318,-500 318,-500 318,-506 312,-512 306,-512 306,-512 246,-512 246,-512 240,-512 234,-506 234,-500 234,-500 234,-482 234,-482 234,-476 240,-470 246,-470"/>
<text text-anchor="start" x="242.5" y="-497.8" font-family="Monospace" font-size="14.00">equality</text>
<polyline fill="none" stroke="black" points="234,-489 318,-489 "/>
<text text-anchor="start" x="248" y="-478" font-family="Monospace" font-size="10.00">identical</text>
</g>
<!-- isomorphism -->
<g id="node4" class="node"><title>isomorphism</title>
<path fill="none" stroke="black" d="M234,-365C234,-365 318,-365 318,-365 324,-365 330,-371 330,-377 330,-377 330,-395 330,-395 330,-401 324,-407 318,-407 318,-407 234,-407 234,-407 228,-407 222,-401 222,-395 222,-395 222,-377 222,-377 222,-371 228,-365 234,-365"/>
<text text-anchor="start" x="230.5" y="-392.8" font-family="Monospace" font-size="14.00">isomorphism</text>
<polyline fill="none" stroke="black" points="222,-384 330,-384 "/>
<text text-anchor="start" x="257" y="-373" font-family="Monospace" font-size="10.00">invert</text>
</g>
<!-- equality&#45;&gt;isomorphism -->
<g id="edge1" class="edge"><title>equality&#45;&gt;isomorphism</title>
<path fill="none" stroke="gold" stroke-width="2" d="M276,-469.651C276,-451.593 276,-425.352 276,-407.307"/>
</g>
<!-- field -->
<g id="node5" class="node"><title>field</title>
<path fill="none" stroke="black" d="M207.5,-291C207.5,-291 242.5,-291 242.5,-291 248.5,-291 254.5,-297 254.5,-303 254.5,-303 254.5,-315 254.5,-315 254.5,-321 248.5,-327 242.5,-327 242.5,-327 207.5,-327 207.5,-327 201.5,-327 195.5,-321 195.5,-315 195.5,-315 195.5,-303 195.5,-303 195.5,-297 201.5,-291 207.5,-291"/>
<text text-anchor="start" x="204" y="-306.3" font-family="Monospace" font-size="14.00">field</text>
</g>
<!-- isomorphism&#45;&gt;field -->
<g id="edge7" class="edge"><title>isomorphism&#45;&gt;field</title>
<path fill="none" stroke="green" stroke-width="2" d="M262.333,-364.901C254.307,-353.099 244.273,-338.342 236.629,-327.101"/>
</g>
<!-- variant -->
<g id="node11" class="node"><title>variant</title>
<path fill="none" stroke="black" d="M293.5,-291C293.5,-291 344.5,-291 344.5,-291 350.5,-291 356.5,-297 356.5,-303 356.5,-303 356.5,-315 356.5,-315 356.5,-321 350.5,-327 344.5,-327 344.5,-327 293.5,-327 293.5,-327 287.5,-327 281.5,-321 281.5,-315 281.5,-315 281.5,-303 281.5,-303 281.5,-297 287.5,-291 293.5,-291"/>
<text text-anchor="start" x="290" y="-306.3" font-family="Monospace" font-size="14.00">variant</text>
</g>
<!-- isomorphism&#45;&gt;variant -->
<g id="edge8" class="edge"><title>isomorphism&#45;&gt;variant</title>
<path fill="none" stroke="red" stroke-width="2" d="M287.523,-364.901C294.29,-353.099 302.75,-338.342 309.196,-327.101"/>
</g>
<!-- getter -->
<g id="node6" class="node"><title>getter</title>
<path fill="none" stroke="black" d="M101.5,-211C101.5,-211 144.5,-211 144.5,-211 150.5,-211 156.5,-217 156.5,-223 156.5,-223 156.5,-241 156.5,-241 156.5,-247 150.5,-253 144.5,-253 144.5,-253 101.5,-253 101.5,-253 95.5,-253 89.5,-247 89.5,-241 89.5,-241 89.5,-223 89.5,-223 89.5,-217 95.5,-211 101.5,-211"/>
<text text-anchor="start" x="98" y="-238.8" font-family="Monospace" font-size="14.00">getter</text>
<polyline fill="none" stroke="black" points="89.5,-230 156.5,-230 "/>
<text text-anchor="start" x="113" y="-219" font-family="Monospace" font-size="10.00">get</text>
</g>
<!-- field&#45;&gt;getter -->
<g id="edge2" class="edge"><title>field&#45;&gt;getter</title>
<path fill="none" stroke="indigo" stroke-width="2" d="M201.855,-290.981C186.572,-279.744 166.477,-264.968 150.397,-253.145"/>
</g>
<!-- nonempty -->
<g id="node7" class="node"><title>nonempty</title>
<path fill="none" stroke="black" d="M187,-214C187,-214 247,-214 247,-214 253,-214 259,-220 259,-226 259,-226 259,-238 259,-238 259,-244 253,-250 247,-250 247,-250 187,-250 187,-250 181,-250 175,-244 175,-238 175,-238 175,-226 175,-226 175,-220 181,-214 187,-214"/>
<text text-anchor="start" x="183.5" y="-229.3" font-family="Monospace" font-size="14.00">nonempty</text>
</g>
<!-- field&#45;&gt;nonempty -->
<g id="edge3" class="edge"><title>field&#45;&gt;nonempty</title>
<path fill="none" stroke="orange" stroke-width="2" d="M223.185,-290.981C221.885,-278.794 220.14,-262.442 218.836,-250.211"/>
</g>
<!-- optional -->
<g id="node8" class="node"><title>optional</title>
<path fill="none" stroke="black" d="M289,-211C289,-211 349,-211 349,-211 355,-211 361,-217 361,-223 361,-223 361,-241 361,-241 361,-247 355,-253 349,-253 349,-253 289,-253 289,-253 283,-253 277,-247 277,-241 277,-241 277,-223 277,-223 277,-217 283,-211 289,-211"/>
<text text-anchor="start" x="285.5" y="-238.8" font-family="Monospace" font-size="14.00">optional</text>
<polyline fill="none" stroke="black" points="277,-230 361,-230 "/>
<text text-anchor="start" x="300" y="-219" font-family="Monospace" font-size="10.00">match_</text>
</g>
<!-- field&#45;&gt;optional -->
<g id="edge4" class="edge"><title>field&#45;&gt;optional</title>
<path fill="none" stroke="red" stroke-width="2" d="M246.33,-290.981C260.414,-279.744 278.933,-264.968 293.752,-253.145"/>
</g>
<!-- nonempty_getter -->
<g id="node9" class="node"><title>nonempty_getter</title>
<path fill="none" stroke="black" d="M11.5,-131C11.5,-131 128.5,-131 128.5,-131 134.5,-131 140.5,-137 140.5,-143 140.5,-143 140.5,-161 140.5,-161 140.5,-167 134.5,-173 128.5,-173 128.5,-173 11.5,-173 11.5,-173 5.5,-173 -0.5,-167 -0.5,-161 -0.5,-161 -0.5,-143 -0.5,-143 -0.5,-137 5.5,-131 11.5,-131"/>
<text text-anchor="start" x="8" y="-158.8" font-family="Monospace" font-size="14.00">nonempty_getter</text>
<polyline fill="none" stroke="black" points="-0.5,-150 140.5,-150 "/>
<text text-anchor="start" x="12" y="-139" font-family="Monospace" font-size="10.00">map_reduce_nonempty</text>
</g>
<!-- getter&#45;&gt;nonempty_getter -->
<g id="edge5" class="edge"><title>getter&#45;&gt;nonempty_getter</title>
<path fill="none" stroke="orange" stroke-width="2" d="M109.351,-210.913C101.438,-199.267 91.5078,-184.653 83.6026,-173.019"/>
</g>
<!-- optional_getter -->
<g id="node10" class="node"><title>optional_getter</title>
<path fill="none" stroke="black" d="M170.5,-131C170.5,-131 287.5,-131 287.5,-131 293.5,-131 299.5,-137 299.5,-143 299.5,-143 299.5,-161 299.5,-161 299.5,-167 293.5,-173 287.5,-173 287.5,-173 170.5,-173 170.5,-173 164.5,-173 158.5,-167 158.5,-161 158.5,-161 158.5,-143 158.5,-143 158.5,-137 164.5,-131 170.5,-131"/>
<text text-anchor="start" x="167" y="-158.8" font-family="Monospace" font-size="14.00">optional_getter</text>
<polyline fill="none" stroke="black" points="158.5,-150 299.5,-150 "/>
<text text-anchor="start" x="198" y="-139" font-family="Monospace" font-size="10.00">get_option</text>
</g>
<!-- getter&#45;&gt;optional_getter -->
<g id="edge6" class="edge"><title>getter&#45;&gt;optional_getter</title>
<path fill="none" stroke="red" stroke-width="2" d="M150.298,-210.913C166.124,-199.267 185.984,-184.653 201.795,-173.019"/>
</g>
<!-- many -->
<g id="node12" class="node"><title>many</title>
<path fill="none" stroke="black" d="M330,-131C330,-131 414,-131 414,-131 420,-131 426,-137 426,-143 426,-143 426,-161 426,-161 426,-167 420,-173 414,-173 414,-173 330,-173 330,-173 324,-173 318,-167 318,-161 318,-161 318,-143 318,-143 318,-137 324,-131 330,-131"/>
<text text-anchor="start" x="355" y="-158.8" font-family="Monospace" font-size="14.00">many</text>
<polyline fill="none" stroke="black" points="318,-150 426,-150 "/>
<text text-anchor="start" x="326" y="-139" font-family="Monospace" font-size="10.00">Applicative.map</text>
</g>
<!-- nonempty&#45;&gt;many -->
<g id="edge11" class="edge"><title>nonempty&#45;&gt;many</title>
<path fill="none" stroke="red" stroke-width="2" d="M251.015,-213.883C274.898,-201.864 306.927,-185.746 332.03,-173.114"/>
</g>
<!-- nonempty&#45;&gt;nonempty_getter -->
<g id="edge12" class="edge"><title>nonempty&#45;&gt;nonempty_getter</title>
<path fill="none" stroke="indigo" stroke-width="2" d="M184.74,-213.883C162.09,-201.864 131.715,-185.746 107.907,-173.114"/>
</g>
<!-- optional&#45;&gt;many -->
<g id="edge14" class="edge"><title>optional&#45;&gt;many</title>
<path fill="none" stroke="orange" stroke-width="2" d="M332.649,-210.913C340.562,-199.267 350.492,-184.653 358.397,-173.019"/>
</g>
<!-- optional&#45;&gt;optional_getter -->
<g id="edge15" class="edge"><title>optional&#45;&gt;optional_getter</title>
<path fill="none" stroke="indigo" stroke-width="2" d="M295.823,-210.913C282.385,-199.267 265.523,-184.653 252.099,-173.019"/>
</g>
<!-- many_getter -->
<g id="node13" class="node"><title>many_getter</title>
<path fill="none" stroke="black" d="M184,-1C184,-1 274,-1 274,-1 280,-1 286,-7 286,-13 286,-13 286,-81 286,-81 286,-87 280,-93 274,-93 274,-93 184,-93 184,-93 178,-93 172,-87 172,-81 172,-81 172,-13 172,-13 172,-7 178,-1 184,-1"/>
<text text-anchor="start" x="183.5" y="-78.8" font-family="Monospace" font-size="14.00">many_getter</text>
<polyline fill="none" stroke="black" points="172,-70 286,-70 "/>
<text text-anchor="start" x="180" y="-59" font-family="Monospace" font-size="10.00">fold</text>
<text text-anchor="start" x="180" y="-49" font-family="Monospace" font-size="10.00">iter</text>
<text text-anchor="start" x="180" y="-39" font-family="Monospace" font-size="10.00">to_list</text>
<text text-anchor="start" x="180" y="-29" font-family="Monospace" font-size="10.00">map_reduce</text>
<text text-anchor="start" x="180" y="-19" font-family="Monospace" font-size="10.00">Applicative.fold</text>
<text text-anchor="start" x="180" y="-9" font-family="Monospace" font-size="10.00">Applicative.iter</text>
</g>
<!-- nonempty_getter&#45;&gt;many_getter -->
<g id="edge13" class="edge"><title>nonempty_getter&#45;&gt;many_getter</title>
<path fill="none" stroke="red" stroke-width="2" d="M101.034,-130.896C121.188,-117.841 148.061,-100.432 171.977,-84.9393"/>
</g>
<!-- optional_getter&#45;&gt;many_getter -->
<g id="edge16" class="edge"><title>optional_getter&#45;&gt;many_getter</title>
<path fill="none" stroke="orange" stroke-width="2" d="M229,-130.651C229,-119.863 229,-106.155 229,-93.0181"/>
</g>
<!-- variant&#45;&gt;constructor -->
<g id="edge17" class="edge"><title>variant&#45;&gt;constructor</title>
<path fill="none" stroke="orange" stroke-width="2" d="M342.67,-287.64C359.75,-276.403 382.21,-261.626 400.181,-249.803"/>
<path fill="none" stroke="none" stroke-width="2" d="M343.769,-289.311C360.849,-278.074 383.309,-263.297 401.281,-251.474"/>
<path fill="none" stroke="blue" stroke-width="2" d="M344.868,-290.981C361.949,-279.744 384.408,-264.968 402.38,-253.145"/>
<path fill="none" stroke="none" stroke-width="2" d="M345.968,-292.652C363.048,-281.415 385.508,-266.639 403.479,-254.816"/>
<path fill="none" stroke="indigo" stroke-width="2" d="M347.067,-294.323C364.147,-283.086 386.607,-268.31 404.578,-256.487"/>
</g>
<!-- variant&#45;&gt;optional -->
<g id="edge18" class="edge"><title>variant&#45;&gt;optional</title>
<path fill="none" stroke="green" stroke-width="2" d="M319,-290.981C319,-279.744 319,-264.968 319,-253.145"/>
</g>
<!-- many&#45;&gt;many_getter -->
<g id="edge9" class="edge"><title>many&#45;&gt;many_getter</title>
<path fill="none" stroke="indigo" stroke-width="2" d="M344.089,-130.896C327.589,-119.011 306.081,-103.52 286.13,-89.1495"/>
</g>
<!-- mapper -->
<g id="node14" class="node"><title>mapper</title>
<path fill="none" stroke="black" d="M350.5,-21C350.5,-21 393.5,-21 393.5,-21 399.5,-21 405.5,-27 405.5,-33 405.5,-33 405.5,-61 405.5,-61 405.5,-67 399.5,-73 393.5,-73 393.5,-73 350.5,-73 350.5,-73 344.5,-73 338.5,-67 338.5,-61 338.5,-61 338.5,-33 338.5,-33 338.5,-27 344.5,-21 350.5,-21"/>
<text text-anchor="start" x="347" y="-58.8" font-family="Monospace" font-size="14.00">mapper</text>
<polyline fill="none" stroke="black" points="338.5,-50 405.5,-50 "/>
<text text-anchor="start" x="362" y="-39" font-family="Monospace" font-size="10.00">map</text>
<text text-anchor="start" x="362" y="-29" font-family="Monospace" font-size="10.00">set</text>
</g>
<!-- many&#45;&gt;mapper -->
<g id="edge10" class="edge"><title>many&#45;&gt;mapper</title>
<path fill="none" stroke="blue" stroke-width="2" d="M372,-130.651C372,-114.118 372,-90.7238 372,-73.0423"/>
</g>
</g>
</svg>
